<svg version="1.1" preserveAspectRatio="none" xmlns="http://www.w3.org/2000/svg" width="500" height="500" viewBox="0 0 500 500"><rect width="100%" height="100%" fill="#F7F7F7" fill-opacity="1"/><svg viewBox="391.4502 294.0757 373.0816 206.845" width="333" height="184.62284122293892" x="83.5px" y="157.6886px" xmlns="http://www.w3.org/2000/svg" xmlns:xlink="http://www.w3.org/1999/xlink" preserveAspectRatio="none"><defs></defs><style>.companyName {fill:#2B2B2B;fill-opacity:1;}.icon1 {fill:#2B2B2B;fill-opacity:1;}.icon2 {fill:#59C65B;fill-opacity:1;}.icon3 {fill:#6D6D6D;fill-opacity:1;}.icon3-str {stroke:#6D6D6D;stroke-opacity:1;}</style><g opacity="1" transform="rotate(0 522.0287 294.0757)">
<svg width="111.9246" height="105.245" x="522.0287" y="294.0757" version="1.1" preserveAspectRatio="none" viewBox="25.87900161743164 27.246997833251953 147.55899047851562 138.7530059814453">
  <g transform="matrix(1 0 0 1 0 0)"><g><path d="M137.374 83.108l6.139-11.736c.228.435 4.375 6.606 4.375 6.606l8.069 2.603 12.09-.683 3.685-10.402-6.608-5.116 5.392-2.894 2.922-4.994-1.919-6.395-9.167-1.279-4.179 2.144-2.643 5.317-2.251-9.026-10.877-6.713-11.174-.675-6.036 8.903-.892 11.931 3.653 7.153 4.026 3.182 7.636-1.391-4.429 11.561" data-color="1" class="icon1"></path><path d="M66.117 66.046l5.499-6.432 4.957-3.351 4.681 1.485 5.146 2.48 8.872 21.412.741 13.039-5.453 7.225-9.109 5.034-4.836-2.588-1.759 4.893-13.559 2.889-7.159-3.279-5.812-10.341-6.663-19.062 1.714-7.999 4.035-4.995 7.316-2.558 7.083.415 4.306 1.733z" data-color="2" class="icon2"></path><path d="M76.782 66.124l2.891 1.985 4.705 9.822 2.682 10.321-1.064 10.186-.649-9.793-2.618-10.138-3.205-8.176-2.865-3.234-4.327-.14 4.45-.833z" data-color="3" class="icon3"></path><path d="M58.879 71.142l-5.461 1.909-3.008 3.634.564 8.893 4.673 11.382 4.409 7.653 4.121 1.865-3.928-2.966-5.058-12.487-1.763-7.028-.887-6.507 3.884-4.767 4.598-1.4-1.835-.289" data-color="3" class="icon3"></path><path d="M70.044 61.468l-6.411-.401s-3.606-6.411-3.606-6.611v-4.407l3.606-2.805 3.406 1.202 1.803-2.404-.401-1.402-5.209-2.003-4.407 1.803-2.604 2.805-.601 6.21 1.603 5.609 1.402 3.005-3.406 4.207 3.205 1.402 3.406 1.402 6.411-2.003 3.406-4.407-1.603-1.202z" data-color="1" class="icon1"></path><path d="M87.658 30.185l4.512 8.212 12.344 6.721 7.734 1.263-2.367-8.027-5.022-4.699-6.605-3.596-10.596.126z" data-color="1" class="icon1"></path><path d="M35.011 135.539l2.965-8.889-3.447-13.625-4.324-6.536-4.286 7.189-.04 6.877 1.845 7.29 7.287 7.694z" data-color="1" class="icon1"></path><path d="M71.315 124.314l-7.909 1.752-5.53 5.592-2.896 7.628.317 9.318 6.607 8.144 8.392 1.417 11.031-2.443 4.515-8.205 2.343-10.126-5.682-7.912-4.829-5.044-6.359-.121z" data-color="1" class="icon1"></path><path d="M71.315 124.314l-7.909 1.752-5.53 5.592-2.896 7.628.317 9.318 6.607 8.144 8.392 1.417 11.031-2.443 4.515-8.205 2.343-10.126-5.682-7.912-4.829-5.044-6.359-.121z" opacity=".7" data-color="3" class="icon3"></path><path d="M70.363 160.793l-9.849-1.663-7.766-9.572-.364-10.702 3.273-8.624 6.449-6.52 8.951-1.982 7.739.146 5.802 6.098 6.364 8.86-2.687 11.612-5.25 9.542-12.662 2.805zm-7.07-6.427l6.937 1.171 9.4-2.082 3.779-6.868 1.999-8.64-4.895-6.816-3.961-4.138-4.979-.094-6.868 1.521-4.612 4.662-2.518 6.634.27 7.935 5.448 6.715z" data-color="1" class="icon1"></path><path d="M71.385 137.527l1.007-2.734-1.007-2.878-1.295 1.871-.576 2.446.863 1.295.576.72.432-.72z" data-color="3" class="icon3"></path><path d="M68.592 138.194l-1.221-2.646-2.747-1.323.407 2.239 1.323 2.137 1.526.305.916.102-.204-.814z" data-color="3" class="icon3"></path><path d="M67.089 140.639l-2.734-1.007-2.878 1.007 1.871 1.295 2.446.576 1.295-.863.72-.576-.72-.432z" data-color="3" class="icon3"></path><path d="M67.756 143.432l-2.646 1.221-1.323 2.747 2.239-.407 2.137-1.323.305-1.526.102-.916-.814.204z" data-color="3" class="icon3"></path><path d="M70.202 144.935l-1.008 2.734 1.008 2.878 1.295-1.871.575-2.446-.863-1.295-.576-.72-.431.72z" data-color="3" class="icon3"></path><path d="M72.994 144.268l1.221 2.646 2.747 1.323-.407-2.239-1.323-2.137-1.526-.305-.916-.102.204.814z" data-color="3" class="icon3"></path><path d="M74.497 141.823l2.734 1.007 2.878-1.007-1.871-1.295-2.446-.576-1.295.863-.719.576.719.432z" data-color="3" class="icon3"></path><path d="M73.83 139.03l2.646-1.221 1.323-2.747-2.239.407-2.137 1.323-.305 1.526-.101.916.813-.204z" data-color="3" class="icon3"></path><path d="M149.383 122.431l2.663 1.367 5.234 4.481 4.153 4.424 2.956 7.372-3.408 11.28s-1.701 6.053-2.247 6.669c-.546.616-5.695 4.182-5.695 4.182L147.861 166l-7.286-5.538-3.561-8.882s-1.963-10.83-1.807-11.429 1.197-9.211 1.197-9.211l7.723-5.464 3.001-2.405 2.255-.64z" data-color="4" class="icon1"></path><path opacity=".2" d="M147.905 165.968c-1.153-2.164-2.577-4.786-2.748-4.863-.292-.131-1.867-4.191-1.867-4.191l-4.363-7.934-1.193-9.165 3.762-9.238 7.069-7.914-1.437.408-3.001 2.405-7.723 5.464s-1.041 8.613-1.197 9.211c-.156.599 1.807 11.429 1.807 11.429l3.561 8.882 7.286 5.538.044-.032z" data-color="5" class="icon2"></path><path d="M153.517 127.848l4.824 5.868 2.623 6.064-1.39 7.054-2.238 3.859 1.876-11.069-1.97-5.072-3.725-6.704z" data-color="3" class="icon3"></path><path opacity=".4" d="M137.374 83.108l6.139-11.736c.228.435 4.375 6.606 4.375 6.606l8.069 2.603 12.09-.683 3.685-10.402-6.608-5.116 5.392-2.894 2.922-4.994-1.919-6.395-9.167-1.279-4.179 2.144-2.643 5.317-2.251-9.026-10.877-6.713-11.174-.675-6.036 8.903-.892 11.931 3.653 7.153 4.026 3.182 7.636-1.391-4.429 11.561" data-color="5" class="icon2"></path><path d="M134.838 77.786l7.795 3.457 3.315 5.669.977 4.631-44.493 74.013-3.896.371-1.128-3.765 23.104-80.47 5.625-4.268 8.701.362z" data-color="6" class="icon3"></path><g opacity=".1"><path d="M133.409 88.345l-.517 1.169 10.729 7.525 1.982-3.296-12.194-5.398z" data-color="5" class="icon2"></path><path d="M115.033 132.374l-.238.886 5.612 2.396.95-1.58-6.324-1.702z" data-color="5" class="icon2"></path><path d="M128.831 92.379l-9.938-5.048-1.097 3.821 10.431 2.591.604-1.364z" data-color="5" class="icon2"></path><path d="M103.278 153.662l.37-.835-3.127-1.508-.384 1.337 3.141 1.006z" data-color="5" class="icon2"></path><path d="M127.329 103.14l-.345.78 8.796 6.164 2.14-3.559a3514.403 3514.403 0 00-10.591-3.385z" data-color="5" class="icon2"></path></g><path opacity=".4" d="M70.044 61.468l-6.411-.401s-3.606-6.411-3.606-6.611v-4.407l3.606-2.805 3.406 1.202 1.803-2.404-.401-1.402-5.209-2.003-4.407 1.803-2.604 2.805-.601 6.21 1.603 5.609 1.402 3.005-3.406 4.207 3.205 1.402 3.406 1.402 6.411-2.003 3.406-4.407-1.603-1.202z" data-color="5" class="icon2"></path><path d="M87.658 30.185l4.512 8.212 12.344 6.721 7.734 1.263-2.367-8.027-5.022-4.699-6.605-3.596-10.596.126z" opacity=".4" data-color="5" class="icon2"></path><path d="M35.011 135.539l2.965-8.889-3.447-13.625-4.324-6.536-4.286 7.189-.04 6.877 1.845 7.29 7.287 7.694z" opacity=".4" data-color="5" class="icon2"></path><path d="M83.731 28.89l15.7 8.547 2.726.923-3.712-2.722-5.63-3.066-5.955-3.242-2.579-1.966-1.762-.117 1.212 1.643z" data-color="1" class="icon1"></path><path d="M36.726 139.302l-4.384-17.33-1.174-2.628.521 4.573 1.573 6.215 1.663 6.573.308 3.229 1.11 1.372.383-2.004z" data-color="1" class="icon1"></path><path d="M67.039 48.446l1.803-2.404-.4-1.402L66 46l1.039 2.446z" data-color="5" class="icon2"></path></g></g>
</svg>
</g><g opacity="1" transform="rotate(0 452.1979 479.3207)">
<svg width="251.5863" height="21.6" x="452.1979" y="479.3207" version="1.1" preserveAspectRatio="none" viewBox="0.1367 -30 448.7555 38.5352">
  <g transform="matrix(1 0 0 1 0 0)" class="companyName"><path id="id-6izo4zJp19" d="M20.57 0L18.59-5.86L8.32-5.86L6.37 0L0.14 0L10.72-28.44L16.15-28.44L26.80 0L20.57 0ZM13.44-21.25L9.90-10.61L17.01-10.61L13.44-21.25Z M41.84-21.27L41.76-15.84Q40.60-16.00 39.73-16.00L39.73-16.00Q36.52-16.00 35.53-13.83L35.53-13.83L35.53 0L29.88 0L29.88-21.13L35.21-21.13L35.37-18.61Q37.07-21.52 40.08-21.52L40.08-21.52Q41.01-21.52 41.84-21.27L41.84-21.27Z M43.69-10.51L43.69-10.76Q43.69-13.91 44.90-16.37Q46.11-18.83 48.39-20.18Q50.66-21.52 53.67-21.52L53.67-21.52Q57.95-21.52 60.65-18.91Q63.36-16.29 63.67-11.80L63.67-11.80L63.71-10.35Q63.71-5.49 60.99-2.55Q58.28 0.39 53.71 0.39Q49.14 0.39 46.41-2.54Q43.69-5.47 43.69-10.51L43.69-10.51ZM49.33-10.35L49.33-10.35Q49.33-7.34 50.47-5.75Q51.60-4.16 53.71-4.16L53.71-4.16Q55.76-4.16 56.91-5.73Q58.06-7.30 58.06-10.76L58.06-10.76Q58.06-13.71 56.91-15.33Q55.76-16.95 53.67-16.95L53.67-16.95Q51.60-16.95 50.47-15.34Q49.33-13.73 49.33-10.35Z M67.17-10.49L67.17-10.72Q67.17-15.59 69.48-18.55Q71.79-21.52 75.72-21.52L75.72-21.52Q79.20-21.52 81.13-19.14L81.13-19.14L81.36-21.13L86.48-21.13L86.48-0.70Q86.48 2.07 85.22 4.12Q83.96 6.17 81.68 7.25Q79.39 8.32 76.33 8.32L76.33 8.32Q74.00 8.32 71.79 7.39Q69.59 6.46 68.45 5L68.45 5L70.95 1.56Q73.06 3.93 76.07 3.93L76.07 3.93Q78.32 3.93 79.57 2.72Q80.82 1.52 80.82-0.68L80.82-0.68L80.82-1.82Q78.86 0.39 75.68 0.39L75.68 0.39Q71.87 0.39 69.52-2.59Q67.17-5.57 67.17-10.49L67.17-10.49ZM72.81-10.31L72.81-10.31Q72.81-7.44 73.96-5.81Q75.11-4.18 77.13-4.18L77.13-4.18Q79.70-4.18 80.82-6.11L80.82-6.11L80.82-15Q79.69-16.93 77.17-16.93L77.17-16.93Q75.13-16.93 73.97-15.27Q72.81-13.61 72.81-10.31Z M95.58-21.13L99.51-7.99L103.41-21.13L109.47-21.13L100.97 3.28L100.50 4.39Q98.61 8.54 94.25 8.54L94.25 8.54Q93.02 8.54 91.75 8.16L91.75 8.16L91.75 3.89L92.61 3.91Q94.22 3.91 95.01 3.42Q95.80 2.93 96.25 1.80L96.25 1.80L96.91 0.06L89.51-21.13L95.58-21.13Z M130.15 0L124.45 0Q124.06-0.76 123.88-1.89L123.88-1.89Q121.83 0.39 118.55 0.39L118.55 0.39Q115.45 0.39 113.40-1.41Q111.36-3.20 111.36-5.94L111.36-5.94Q111.36-9.30 113.85-11.09Q116.34-12.89 121.05-12.91L121.05-12.91L123.65-12.91L123.65-14.12Q123.65-15.59 122.90-16.46Q122.14-17.34 120.52-17.34L120.52-17.34Q119.10-17.34 118.29-16.66Q117.48-15.98 117.48-14.79L117.48-14.79L111.83-14.79Q111.83-16.62 112.96-18.18Q114.10-19.75 116.17-20.63Q118.24-21.52 120.82-21.52L120.82-21.52Q124.72-21.52 127.02-19.56Q129.31-17.60 129.31-14.04L129.31-14.04L129.31-4.88Q129.33-1.88 130.15-0.33L130.15-0.33L130.15 0ZM119.78-3.93L119.78-3.93Q121.03-3.93 122.09-4.48Q123.14-5.04 123.65-5.98L123.65-5.98L123.65-9.61L121.54-9.61Q117.30-9.61 117.03-6.68L117.03-6.68L117.01-6.35Q117.01-5.29 117.75-4.61Q118.49-3.93 119.78-3.93Z M134.45-21.13L139.74-21.13L139.92-18.77Q142.16-21.52 145.99-21.52L145.99-21.52Q150.07-21.52 151.60-18.30L151.60-18.30Q153.82-21.52 157.94-21.52L157.94-21.52Q161.38-21.52 163.06-19.52Q164.74-17.52 164.74-13.50L164.74-13.50L164.74 0L159.08 0L159.08-13.48Q159.08-15.27 158.37-16.10Q157.67-16.93 155.89-16.93L155.89-16.93Q153.35-16.93 152.38-14.51L152.38-14.51L152.40 0L146.75 0L146.75-13.46Q146.75-15.29 146.03-16.11Q145.31-16.93 143.57-16.93L143.57-16.93Q141.17-16.93 140.09-14.94L140.09-14.94L140.09 0L134.45 0L134.45-21.13Z M179.60 0.39L179.60 0.39Q174.96 0.39 172.04-2.46Q169.12-5.31 169.12-10.06L169.12-10.06L169.12-10.61Q169.12-13.79 170.35-16.30Q171.58-18.81 173.83-20.17Q176.09-21.52 178.98-21.52L178.98-21.52Q183.31-21.52 185.81-18.79Q188.30-16.05 188.30-11.04L188.30-11.04L188.30-8.73L174.84-8.73Q175.11-6.66 176.49-5.41Q177.87-4.16 179.98-4.16L179.98-4.16Q183.24-4.16 185.07-6.52L185.07-6.52L187.85-3.42Q186.58-1.62 184.41-0.62Q182.24 0.39 179.60 0.39ZM178.96-16.95L178.96-16.95Q177.28-16.95 176.23-15.82Q175.19-14.69 174.90-12.58L174.90-12.58L182.75-12.58L182.75-13.03Q182.71-14.90 181.73-15.93Q180.76-16.95 178.96-16.95Z M203.43-28.44L211.09-28.44L218.39-7.81L225.66-28.44L233.35-28.44L233.35 0L227.47 0L227.47-7.77L228.06-21.19L220.38 0L216.36 0L208.70-21.17L209.29-7.77L209.29 0L203.43 0L203.43-28.44Z M256.85 0L251.14 0Q250.75-0.76 250.58-1.89L250.58-1.89Q248.53 0.39 245.25 0.39L245.25 0.39Q242.14 0.39 240.10-1.41Q238.06-3.20 238.06-5.94L238.06-5.94Q238.06-9.30 240.55-11.09Q243.04-12.89 247.75-12.91L247.75-12.91L250.34-12.91L250.34-14.12Q250.34-15.59 249.59-16.46Q248.84-17.34 247.22-17.34L247.22-17.34Q245.79-17.34 244.98-16.66Q244.17-15.98 244.17-14.79L244.17-14.79L238.53-14.79Q238.53-16.62 239.66-18.18Q240.79-19.75 242.86-20.63Q244.93-21.52 247.51-21.52L247.51-21.52Q251.42-21.52 253.71-19.56Q256.01-17.60 256.01-14.04L256.01-14.04L256.01-4.88Q256.03-1.88 256.85-0.33L256.85-0.33L256.85 0ZM246.48-3.93L246.48-3.93Q247.73-3.93 248.78-4.48Q249.84-5.04 250.34-5.98L250.34-5.98L250.34-9.61L248.23-9.61Q244.00-9.61 243.72-6.68L243.72-6.68L243.70-6.35Q243.70-5.29 244.45-4.61Q245.19-3.93 246.48-3.93Z M266.65-30L266.65-18.83Q268.90-21.52 272.30-21.52L272.30-21.52Q279.17-21.52 279.27-13.54L279.27-13.54L279.27 0L273.62 0L273.62-13.38Q273.62-15.20 272.84-16.06Q272.06-16.93 270.25-16.93L270.25-16.93Q267.76-16.93 266.65-15.02L266.65-15.02L266.65 0L261.01 0L261.01-30L266.65-30Z M302.28 0L296.57 0Q296.18-0.76 296.01-1.89L296.01-1.89Q293.96 0.39 290.67 0.39L290.67 0.39Q287.57 0.39 285.53-1.41Q283.49-3.20 283.49-5.94L283.49-5.94Q283.49-9.30 285.98-11.09Q288.47-12.89 293.17-12.91L293.17-12.91L295.77-12.91L295.77-14.12Q295.77-15.59 295.02-16.46Q294.27-17.34 292.65-17.34L292.65-17.34Q291.22-17.34 290.41-16.66Q289.60-15.98 289.60-14.79L289.60-14.79L283.96-14.79Q283.96-16.62 285.09-18.18Q286.22-19.75 288.29-20.63Q290.36-21.52 292.94-21.52L292.94-21.52Q296.85-21.52 299.14-19.56Q301.44-17.60 301.44-14.04L301.44-14.04L301.44-4.88Q301.46-1.88 302.28-0.33L302.28-0.33L302.28 0ZM291.90-3.93L291.90-3.93Q293.15-3.93 294.21-4.48Q295.26-5.04 295.77-5.98L295.77-5.98L295.77-9.61L293.66-9.61Q289.42-9.61 289.15-6.68L289.15-6.68L289.13-6.35Q289.13-5.29 289.87-4.61Q290.62-3.93 291.90-3.93Z M325.61-10.68L325.61-10.37Q325.61-5.29 323.45-2.45Q321.28 0.39 317.39 0.39L317.39 0.39Q313.95 0.39 311.90-2.25L311.90-2.25L311.65 0L306.57 0L306.57-30L312.22-30L312.22-19.24Q314.17-21.52 317.35-21.52L317.35-21.52Q321.22-21.52 323.42-18.68Q325.61-15.84 325.61-10.68L325.61-10.68ZM319.97-10.78L319.97-10.78Q319.97-13.98 318.95-15.46Q317.94-16.93 315.93-16.93L315.93-16.93Q313.23-16.93 312.22-14.73L312.22-14.73L312.22-6.39Q313.25-4.16 315.97-4.16L315.97-4.16Q318.70-4.16 319.56-6.86L319.56-6.86Q319.97-8.14 319.97-10.78Z M347.84 0L342.14 0Q341.75-0.76 341.57-1.89L341.57-1.89Q339.52 0.39 336.24 0.39L336.24 0.39Q333.13 0.39 331.09-1.41Q329.05-3.20 329.05-5.94L329.05-5.94Q329.05-9.30 331.54-11.09Q334.03-12.89 338.74-12.91L338.74-12.91L341.34-12.91L341.34-14.12Q341.34-15.59 340.58-16.46Q339.83-17.34 338.21-17.34L338.21-17.34Q336.79-17.34 335.98-16.66Q335.16-15.98 335.16-14.79L335.16-14.79L329.52-14.79Q329.52-16.62 330.65-18.18Q331.79-19.75 333.86-20.63Q335.93-21.52 338.50-21.52L338.50-21.52Q342.41-21.52 344.71-19.56Q347.00-17.60 347.00-14.04L347.00-14.04L347.00-4.88Q347.02-1.88 347.84-0.33L347.84-0.33L347.84 0ZM337.47-3.93L337.47-3.93Q338.72-3.93 339.77-4.48Q340.83-5.04 341.34-5.98L341.34-5.98L341.34-9.61L339.23-9.61Q334.99-9.61 334.72-6.68L334.72-6.68L334.70-6.35Q334.70-5.29 335.44-4.61Q336.18-3.93 337.47-3.93Z M351.32-10.49L351.32-10.72Q351.32-15.59 353.63-18.55Q355.95-21.52 359.87-21.52L359.87-21.52Q363.35-21.52 365.28-19.14L365.28-19.14L365.52-21.13L370.63-21.13L370.63-0.70Q370.63 2.07 369.37 4.12Q368.11 6.17 365.83 7.25Q363.54 8.32 360.48 8.32L360.48 8.32Q358.15 8.32 355.95 7.39Q353.74 6.46 352.61 5L352.61 5L355.11 1.56Q357.21 3.93 360.22 3.93L360.22 3.93Q362.47 3.93 363.72 2.72Q364.97 1.52 364.97-0.68L364.97-0.68L364.97-1.82Q363.02 0.39 359.83 0.39L359.83 0.39Q356.02 0.39 353.67-2.59Q351.32-5.57 351.32-10.49L351.32-10.49ZM356.96-10.31L356.96-10.31Q356.96-7.44 358.11-5.81Q359.27-4.18 361.28-4.18L361.28-4.18Q363.86-4.18 364.97-6.11L364.97-6.11L364.97-15Q363.84-16.93 361.32-16.93L361.32-16.93Q359.29-16.93 358.12-15.27Q356.96-13.61 356.96-10.31Z M379.73-21.13L383.66-7.99L387.57-21.13L393.62-21.13L385.12 3.28L384.66 4.39Q382.76 8.54 378.41 8.54L378.41 8.54Q377.18 8.54 375.91 8.16L375.91 8.16L375.91 3.89L376.76 3.91Q378.37 3.91 379.16 3.42Q379.95 2.93 380.40 1.80L380.40 1.80L381.06 0.06L373.66-21.13L379.73-21.13Z M414.30 0L408.60 0Q408.21-0.76 408.03-1.89L408.03-1.89Q405.98 0.39 402.70 0.39L402.70 0.39Q399.60 0.39 397.56-1.41Q395.51-3.20 395.51-5.94L395.51-5.94Q395.51-9.30 398.00-11.09Q400.49-12.89 405.20-12.91L405.20-12.91L407.80-12.91L407.80-14.12Q407.80-15.59 407.05-16.46Q406.30-17.34 404.67-17.34L404.67-17.34Q403.25-17.34 402.44-16.66Q401.63-15.98 401.63-14.79L401.63-14.79L395.98-14.79Q395.98-16.62 397.12-18.18Q398.25-19.75 400.32-20.63Q402.39-21.52 404.97-21.52L404.97-21.52Q408.87-21.52 411.17-19.56Q413.46-17.60 413.46-14.04L413.46-14.04L413.46-4.88Q413.48-1.88 414.30-0.33L414.30-0.33L414.30 0ZM403.93-3.93L403.93-3.93Q405.18-3.93 406.24-4.48Q407.29-5.04 407.80-5.98L407.80-5.98L407.80-9.61L405.69-9.61Q401.45-9.61 401.18-6.68L401.18-6.68L401.16-6.35Q401.16-5.29 401.90-4.61Q402.64-3.93 403.93-3.93Z M418.60-21.13L423.89-21.13L424.07-18.77Q426.31-21.52 430.14-21.52L430.14-21.52Q434.22-21.52 435.75-18.30L435.75-18.30Q437.97-21.52 442.10-21.52L442.10-21.52Q445.53-21.52 447.21-19.52Q448.89-17.52 448.89-13.50L448.89-13.50L448.89 0L443.23 0L443.23-13.48Q443.23-15.27 442.53-16.10Q441.82-16.93 440.04-16.93L440.04-16.93Q437.51-16.93 436.53-14.51L436.53-14.51L436.55 0L430.90 0L430.90-13.46Q430.90-15.29 430.18-16.11Q429.46-16.93 427.72-16.93L427.72-16.93Q425.32-16.93 424.24-14.94L424.24-14.94L424.24 0L418.60 0L418.60-21.13Z"/></g>
</svg>
</g><g opacity="1" transform="rotate(0 391.4502 425.3207)">
<svg width="373.0816" height="40" x="391.4502" y="425.3207" version="1.1" preserveAspectRatio="none" viewBox="1.64 -25.44 237.28000000000003 25.44">
  <g transform="matrix(1 0 0 1 0 0)" class="companyName"><path id="id-D6z1nYkh13" d="M6.72-25.44L6.72-25.44L12.08-25.44Q17.12-25.44 17.12-21.04L17.12-21.04L17.12-4.44Q17.12 0 12.08 0L12.08 0L6.72 0Q1.64 0 1.64-4.44L1.64-4.44L1.64-21.04Q1.64-25.44 6.72-25.44ZM11.40-5.20L11.40-5.20L11.40-20.24Q11.40-21.24 10.36-21.24L10.36-21.24L8.44-21.24Q7.36-21.24 7.36-20.24L7.36-20.24L7.36-5.20Q7.36-4.20 8.44-4.20L8.44-4.20L10.36-4.20Q11.40-4.20 11.40-5.20Z M28.04-9.52L27.04-9.52L27.04 0L21.36 0L21.36-25.44L31.84-25.44Q36.88-25.44 36.88-21.04L36.88-21.04L36.88-13.92Q36.88-10.40 33.68-9.68L33.68-9.68L38.16 0L32.04 0L28.04-9.52ZM30.12-21.24L27.04-21.24L27.04-13.56L30.12-13.56Q30.68-13.56 30.92-13.78Q31.16-14 31.16-14.52L31.16-14.52L31.16-20.24Q31.16-21.24 30.12-21.24L30.12-21.24Z M55.96-21.04L55.96-17.20L50.24-17.20L50.24-20.52Q50.24-21.52 49.16-21.52L49.16-21.52L47.52-21.52Q46.44-21.52 46.44-20.52L46.44-20.52L46.44-4.92Q46.44-4.36 46.68-4.14Q46.92-3.92 47.52-3.92L47.52-3.92L49.16-3.92Q49.76-3.92 50.00-4.14Q50.24-4.36 50.24-4.92L50.24-4.92L50.24-9.88L48.24-9.88L48.24-13.68L55.96-13.68L55.96-4.40Q55.96 0 50.92 0L50.92 0L45.76 0Q40.72 0 40.72-4.40L40.72-4.40L40.72-21.04Q40.72-25.44 45.76-25.44L45.76-25.44L50.92-25.44Q55.96-25.44 55.96-21.04L55.96-21.04Z M77.32 0L71.56 0L70.68-4.60L64.88-4.60L64 0L58.36 0L64.12-25.44L71.40-25.44L77.32 0ZM67.76-19.52L65.68-8.76L69.84-8.76L67.76-19.52Z M90.72-10.24L90.72-25.44L95.96-25.44L95.96 0L90.84 0L85.28-15.24L85.28 0L80.08 0L80.08-25.44L85.24-25.44L90.72-10.24Z M100.44 0L100.44-25.44L106.12-25.44L106.12 0L100.44 0Z M125.68-21.04L125.68-16.52L119.92-16.52L119.92-20.52Q119.92-21.52 118.88-21.52L118.88-21.52L117.24-21.52Q116.16-21.52 116.16-20.52L116.16-20.52L116.16-4.92Q116.16-4.36 116.40-4.14Q116.64-3.92 117.24-3.92L117.24-3.92L118.88-3.92Q119.44-3.92 119.68-4.14Q119.92-4.36 119.92-4.92L119.92-4.92L119.92-8.80L125.68-8.80L125.68-4.40Q125.68 0 120.60 0L120.60 0L115.48 0Q110.44 0 110.44-4.40L110.44-4.40L110.44-21.04Q110.44-25.44 115.48-25.44L115.48-25.44L120.60-25.44Q125.68-25.44 125.68-21.04L125.68-21.04Z M156.84-6.44L159.52-25.44L165.20-25.44L160.28 0L153.44 0L150.60-16.64L147.76 0L140.92 0L136-25.44L141.92-25.44L144.32-6.44L147.68-25.44L153.48-25.44L156.84-6.44Z M173.12-25.44L173.12-25.44L178.48-25.44Q183.52-25.44 183.52-21.04L183.52-21.04L183.52-4.44Q183.52 0 178.48 0L178.48 0L173.12 0Q168.04 0 168.04-4.44L168.04-4.44L168.04-21.04Q168.04-25.44 173.12-25.44ZM177.80-5.20L177.80-5.20L177.80-20.24Q177.80-21.24 176.76-21.24L176.76-21.24L174.84-21.24Q173.76-21.24 173.76-20.24L173.76-20.24L173.76-5.20Q173.76-4.20 174.84-4.20L174.84-4.20L176.76-4.20Q177.80-4.20 177.80-5.20Z M194.44-9.52L193.44-9.52L193.44 0L187.76 0L187.76-25.44L198.24-25.44Q203.28-25.44 203.28-21.04L203.28-21.04L203.28-13.92Q203.28-10.40 200.08-9.68L200.08-9.68L204.56 0L198.44 0L194.44-9.52ZM196.52-21.24L193.44-21.24L193.44-13.56L196.52-13.56Q197.08-13.56 197.32-13.78Q197.56-14 197.56-14.52L197.56-14.52L197.56-20.24Q197.56-21.24 196.52-21.24L196.52-21.24Z M213-25.44L213-4.20L220.32-4.20L220.32 0L207.32 0L207.32-25.44L213-25.44Z M223.24 0L223.24-25.44L233.84-25.44Q238.92-25.44 238.92-21.04L238.92-21.04L238.92-4.44Q238.92 0 233.84 0L233.84 0L223.24 0ZM233.20-4.92L233.20-4.92L233.20-20.52Q233.20-21.52 232.12-21.52L232.12-21.52L228.96-21.52L228.96-3.92L232.12-3.92Q233.20-3.92 233.20-4.92Z"/></g>
</svg>
</g></svg></svg>